<?xml version="1.0" encoding="UTF-8" ?>
<!DOCTYPE svg PUBLIC "-//W3C//DTD SVG 1.1//EN" "http://www.w3.org/Graphics/SVG/1.1/DTD/svg11.dtd">
<svg width="1083pt" height="220pt" viewBox="0 0 1083 220" version="1.1" xmlns="http://www.w3.org/2000/svg">
<g id="#854500e0">
<path fill="#854500" opacity="0.88" d=" M 62.94 26.87 C 67.59 26.19 72.22 25.09 76.94 25.13 C 106.26 25.17 135.56 24.78 164.88 24.73 C 170.98 24.88 177.97 24.74 182.68 29.31 C 188.54 34.14 186.20 43.92 180.72 48.05 C 181.04 47.27 181.38 46.50 181.74 45.73 C 184.74 41.80 186.58 35.92 183.27 31.62 C 178.99 27.00 172.36 25.59 166.28 25.89 C 136.87 26.03 107.47 26.26 78.06 26.29 C 69.17 26.26 60.40 28.14 52.08 31.14 L 50.81 31.09 C 54.51 28.92 58.63 27.25 62.94 26.87 Z" />
</g>
<g id="#fda800fe">
<path fill="#fda800" opacity="1.00" d=" M 78.06 26.29 C 107.47 26.26 136.87 26.03 166.28 25.89 C 172.36 25.59 178.99 27.00 183.27 31.62 C 186.58 35.92 184.74 41.80 181.74 45.73 C 181.73 42.76 182.69 39.88 182.58 36.91 C 180.34 38.06 178.04 39.10 175.67 39.97 C 175.59 39.51 175.42 38.60 175.34 38.15 C 174.72 38.49 174.11 38.84 173.49 39.19 C 168.91 36.98 163.73 36.96 158.77 37.15 C 139.49 37.21 120.22 37.06 100.95 37.12 C 94.50 37.19 88.04 36.48 81.61 37.25 C 74.72 37.00 67.85 37.59 60.96 37.54 C 56.05 37.49 51.21 40.38 46.35 38.70 C 45.95 38.96 45.14 39.49 44.73 39.75 C 43.93 39.09 43.13 38.43 42.33 37.78 C 45.02 35.52 48.18 33.90 50.72 31.45 C 51.06 31.37 51.74 31.22 52.08 31.14 C 60.40 28.14 69.17 26.26 78.06 26.29 Z" />
</g>
<g id="#6a3400e4">
<path fill="#6a3400" opacity="0.89" d=" M 43.44 35.42 C 45.67 33.79 47.96 32.07 50.72 31.45 C 48.18 33.90 45.02 35.52 42.33 37.78 C 34.48 45.22 28.93 55.12 27.89 66.00 C 31.15 63.26 33.33 59.23 37.37 57.49 C 35.22 61.46 30.77 63.66 28.41 67.58 C 27.97 67.76 27.11 68.13 26.68 68.32 C 26.91 55.55 33.65 43.40 43.44 35.42 Z" />
</g>
<g id="#fc8900fe">
<path fill="#fc8900" opacity="1.00" d=" M 60.96 37.54 C 67.85 37.59 74.72 37.00 81.61 37.25 C 83.57 37.64 85.51 38.08 87.46 38.50 C 87.85 39.22 88.23 39.94 88.62 40.66 C 89.06 39.72 89.50 38.77 89.95 37.82 C 90.95 39.28 91.96 40.74 92.96 42.20 C 91.19 42.54 89.55 43.30 88.08 44.33 C 89.79 44.61 91.50 44.93 93.19 45.35 C 89.52 46.09 85.76 46.08 82.03 46.17 C 83.42 46.84 84.80 47.53 86.22 48.14 C 74.26 48.22 62.13 47.93 50.43 50.70 C 49.07 51.11 47.11 50.85 46.63 52.63 C 46.52 52.66 46.28 52.71 46.16 52.73 C 42.86 53.20 39.78 54.81 37.58 57.33 C 37.53 57.37 37.42 57.45 37.37 57.49 C 33.33 59.23 31.15 63.26 27.89 66.00 C 28.93 55.12 34.48 45.22 42.33 37.78 C 43.13 38.43 43.93 39.09 44.73 39.75 C 45.14 39.49 45.95 38.96 46.35 38.70 C 51.21 40.38 56.05 37.49 60.96 37.54 Z" />
</g>
<g id="#fd9200fe">
<path fill="#fd9200" opacity="1.00" d=" M 81.61 37.25 C 88.04 36.48 94.50 37.19 100.95 37.12 C 120.22 37.06 139.49 37.21 158.77 37.15 C 159.80 37.61 160.83 38.11 161.85 38.61 C 160.64 38.91 159.43 39.20 158.22 39.50 C 159.53 41.19 161.13 42.62 162.84 43.90 C 162.52 45.45 162.19 47.01 161.87 48.56 C 161.58 48.50 160.99 48.38 160.69 48.32 C 157.24 47.55 153.51 47.33 150.12 48.48 C 148.11 49.56 146.81 51.54 145.35 53.23 C 145.18 52.55 144.83 51.19 144.65 50.50 C 141.62 50.97 138.21 51.11 136.57 47.97 C 136.58 48.94 136.59 49.91 136.60 50.89 C 136.11 50.77 135.14 50.52 134.65 50.40 C 134.68 49.00 134.71 47.60 134.73 46.19 C 133.70 47.09 132.67 47.98 131.67 48.92 L 131.19 47.61 C 116.19 47.31 101.22 48.50 86.22 48.14 C 84.80 47.53 83.42 46.84 82.03 46.17 C 85.76 46.08 89.52 46.09 93.19 45.35 C 91.50 44.93 89.79 44.61 88.08 44.33 C 89.55 43.30 91.19 42.54 92.96 42.20 C 91.96 40.74 90.95 39.28 89.95 37.82 C 89.50 38.77 89.06 39.72 88.62 40.66 C 88.23 39.94 87.85 39.22 87.46 38.50 C 85.51 38.08 83.57 37.64 81.61 37.25 Z" />
</g>
<g id="#fd9b00fe">
<path fill="#fd9b00" opacity="1.00" d=" M 158.77 37.15 C 163.73 36.96 168.91 36.98 173.49 39.19 C 174.11 38.84 174.72 38.49 175.34 38.15 C 175.42 38.60 175.59 39.51 175.67 39.97 C 178.04 39.10 180.34 38.06 182.58 36.91 C 182.69 39.88 181.73 42.76 181.74 45.73 C 181.38 46.50 181.04 47.27 180.72 48.05 L 180.49 48.57 L 180.39 48.65 C 177.34 51.10 174.29 53.84 172.54 57.40 L 172.47 57.54 L 172.42 57.59 C 170.17 58.88 168.67 61.01 167.62 63.33 C 167.58 63.38 167.51 63.48 167.48 63.54 C 165.07 65.45 162.57 67.47 161.52 70.49 C 161.37 70.61 161.05 70.86 160.90 70.98 C 159.31 71.72 158.09 73.06 157.75 74.81 C 157.60 75.04 157.31 75.48 157.17 75.71 C 154.17 77.50 152.04 80.37 150.64 83.52 L 150.55 83.70 L 150.28 83.89 C 147.79 85.47 145.76 87.68 144.49 90.35 C 144.44 90.40 144.35 90.51 144.31 90.56 C 138.73 95.58 134.44 101.83 129.25 107.24 C 127.69 107.16 126.14 107.09 124.59 107.02 C 124.52 107.51 124.39 108.49 124.33 108.98 C 123.93 108.94 123.15 108.88 122.76 108.84 C 122.60 108.34 122.28 107.32 122.11 106.82 C 119.90 108.43 119.61 111.26 118.56 113.60 C 117.99 115.67 115.45 115.33 113.83 115.91 C 111.89 116.10 110.57 117.61 109.16 118.77 C 108.86 117.90 108.55 117.03 108.25 116.16 C 109.33 115.63 110.41 115.11 111.50 114.59 C 111.87 112.32 111.07 110.23 109.64 108.47 L 109.79 108.29 C 111.73 107.08 113.28 105.41 114.63 103.59 C 120.11 96.66 126.82 90.57 131.15 82.82 C 132.18 81.63 133.25 80.48 134.33 79.34 C 136.64 78.09 138.31 76.06 139.26 73.63 C 139.32 73.56 139.44 73.41 139.50 73.34 C 142.11 71.77 143.98 69.32 145.20 66.57 C 145.36 66.25 145.66 65.63 145.82 65.32 C 147.86 65.74 148.85 63.61 149.08 61.95 C 149.22 61.74 149.50 61.32 149.63 61.10 C 152.12 59.55 154.05 57.31 155.16 54.59 C 156.94 52.44 158.80 50.37 160.69 48.32 C 160.99 48.38 161.58 48.50 161.87 48.56 C 162.19 47.01 162.52 45.45 162.84 43.90 C 161.13 42.62 159.53 41.19 158.22 39.50 C 159.43 39.20 160.64 38.91 161.85 38.61 C 160.83 38.11 159.80 37.61 158.77 37.15 Z" />
<path fill="#fd9b00" opacity="1.00" d=" M 131.67 48.92 C 132.67 47.98 133.70 47.09 134.73 46.19 C 134.71 47.60 134.68 49.00 134.65 50.40 C 135.14 50.52 136.11 50.77 136.60 50.89 C 136.59 49.91 136.58 48.94 136.57 47.97 C 138.21 51.11 141.62 50.97 144.65 50.50 C 144.83 51.19 145.18 52.55 145.35 53.23 C 144.69 54.06 144.04 54.90 143.38 55.73 C 141.03 57.48 139.04 59.67 137.75 62.33 C 131.09 70.27 124.37 78.17 117.48 85.92 C 113.78 88.62 110.65 92.21 108.78 96.42 C 108.74 96.47 108.65 96.59 108.61 96.64 C 105.82 98.13 103.80 100.55 101.95 103.04 C 100.20 105.45 97.78 107.47 96.87 110.40 C 96.80 110.45 96.65 110.57 96.58 110.62 C 93.89 112.25 91.81 114.67 90.56 117.55 L 90.22 118.13 C 87.70 115.45 91.27 113.31 92.65 111.21 C 90.82 109.79 89.35 111.47 88.05 112.72 C 87.44 112.08 86.83 111.44 86.23 110.81 C 86.83 110.05 87.69 109.45 88.07 108.54 C 87.71 107.02 87.00 105.61 86.43 104.17 C 84.83 107.66 82.25 111.21 78.20 111.89 C 80.35 109.30 82.95 106.99 84.32 103.85 C 84.43 103.63 84.65 103.19 84.76 102.97 C 84.94 102.83 85.30 102.56 85.48 102.43 C 88.78 99.96 91.33 96.56 93.33 92.98 C 93.44 92.81 93.65 92.46 93.76 92.29 C 96.00 90.59 97.79 88.41 99.15 85.96 C 99.30 85.79 99.62 85.47 99.77 85.30 C 104.11 81.24 108.57 76.92 111.31 71.60 C 111.38 71.46 111.52 71.17 111.59 71.03 C 113.76 69.90 115.15 67.87 116.22 65.74 C 116.30 65.60 116.46 65.33 116.54 65.19 C 119.28 63.79 121.13 61.21 122.40 58.48 C 122.48 58.33 122.64 58.02 122.72 57.86 C 122.89 57.72 123.24 57.42 123.41 57.27 C 126.42 54.75 128.79 51.58 131.67 48.92 Z" />
</g>
<g id="#733a00bb">
<path fill="#733a00" opacity="0.73" d=" M 50.43 50.70 C 62.13 47.93 74.26 48.22 86.22 48.14 C 101.22 48.50 116.19 47.31 131.19 47.61 L 131.67 48.92 C 128.79 51.58 126.42 54.75 123.41 57.27 C 124.66 53.60 128.43 51.52 130.35 48.19 C 117.56 48.91 104.74 48.70 91.95 49.06 C 80.22 48.81 68.47 49.17 56.81 50.36 C 53.40 51.04 49.92 51.42 46.63 52.63 C 47.11 50.85 49.07 51.11 50.43 50.70 Z" />
</g>
<g id="#683400c6">
<path fill="#683400" opacity="0.78" d=" M 172.54 57.40 C 174.29 53.84 177.34 51.10 180.39 48.65 C 179.51 51.11 177.18 52.51 175.73 54.59 C 174.80 55.65 174.07 57.10 172.54 57.40 Z" />
</g>
<g id="#673000d6">
<path fill="#673000" opacity="0.84" d=" M 37.58 57.33 C 39.78 54.81 42.86 53.20 46.16 52.73 C 43.86 55.03 40.56 56.12 37.58 57.33 Z" />
</g>
<g id="#844601c7">
<path fill="#844601" opacity="0.78" d=" M 149.63 61.10 C 151.14 58.67 153.00 56.47 155.16 54.59 C 154.05 57.31 152.12 59.55 149.63 61.10 Z" />
</g>
<g id="#7b3f01c5">
<path fill="#7b3f01" opacity="0.77" d=" M 137.75 62.33 C 139.04 59.67 141.03 57.48 143.38 55.73 C 141.88 58.22 140.09 60.56 137.75 62.33 Z" />
</g>
<g id="#7a3d00dd">
<path fill="#7a3d00" opacity="0.87" d=" M 167.62 63.33 C 168.67 61.01 170.17 58.88 172.42 57.59 C 171.56 59.99 169.86 62.10 167.62 63.33 Z" />
</g>
<g id="#7c4100d5">
<path fill="#7c4100" opacity="0.84" d=" M 116.54 65.19 C 118.31 62.82 119.67 59.91 122.40 58.48 C 121.13 61.21 119.28 63.79 116.54 65.19 Z" />
</g>
<g id="#9d5100eb">
<path fill="#9d5100" opacity="0.92" d=" M 145.82 65.32 C 146.36 63.78 147.47 62.41 149.08 61.95 C 148.85 63.61 147.86 65.74 145.82 65.32 Z" />
</g>
<g id="#6f3600cf">
<path fill="#6f3600" opacity="0.81" d=" M 161.52 70.49 C 162.57 67.47 165.07 65.45 167.48 63.54 C 166.10 66.25 164.09 68.82 161.52 70.49 Z" />
</g>
<g id="#8d4c00d3">
<path fill="#8d4c00" opacity="0.83" d=" M 111.59 71.03 C 112.83 69.04 114.16 66.98 116.22 65.74 C 115.15 67.87 113.76 69.90 111.59 71.03 Z" />
</g>
<g id="#924e00ec">
<path fill="#924e00" opacity="0.93" d=" M 139.50 73.34 C 140.73 70.58 142.84 68.38 145.20 66.57 C 143.98 69.32 142.11 71.77 139.50 73.34 Z" />
</g>
<g id="#773c00cd">
<path fill="#773c00" opacity="0.80" d=" M 157.75 74.81 C 158.09 73.06 159.31 71.72 160.90 70.98 C 161.39 72.55 159.47 75.27 157.75 74.81 Z" />
</g>
<g id="#8a4900e1">
<path fill="#8a4900" opacity="0.88" d=" M 106.12 77.09 C 107.75 75.17 109.16 72.99 111.31 71.60 C 108.57 76.92 104.11 81.24 99.77 85.30 C 101.11 82.01 103.98 79.81 106.12 77.09 Z" />
</g>
<g id="#924d00eb">
<path fill="#924d00" opacity="0.92" d=" M 134.33 79.34 C 135.49 77.06 137.14 75.08 139.26 73.63 C 138.31 76.06 136.64 78.09 134.33 79.34 Z" />
</g>
<g id="#844200e0">
<path fill="#844200" opacity="0.88" d=" M 150.64 83.52 C 152.04 80.37 154.17 77.50 157.17 75.71 C 155.23 78.48 153.37 81.47 150.64 83.52 Z" />
</g>
<g id="#441b00e8">
<path fill="#441b00" opacity="0.91" d=" M 284.04 80.96 C 302.40 80.99 320.76 81.00 339.12 80.92 C 339.26 83.52 339.25 86.14 339.01 88.73 C 337.20 90.35 335.69 92.39 333.44 93.43 C 334.63 91.41 336.38 89.82 337.75 87.94 C 338.13 86.01 338.17 84.04 338.32 82.09 C 320.56 81.97 302.81 82.00 285.05 82.08 C 284.99 85.37 285.01 88.65 285.13 91.94 C 295.84 92.12 306.56 91.89 317.27 92.33 C 315.94 94.24 314.40 95.99 312.65 97.53 C 312.98 95.65 314.68 94.56 315.82 93.19 C 305.22 92.84 294.62 93.07 284.02 93.02 C 283.94 89.00 283.93 84.98 284.04 80.96 Z" />
</g>
<g id="#502300e2">
<path fill="#502300" opacity="0.89" d=" M 406.68 81.09 C 412.46 80.88 418.24 81.23 424.01 80.87 C 428.18 88.53 433.10 95.73 437.97 102.95 C 438.97 104.51 440.35 105.91 440.28 107.96 L 439.73 107.35 C 433.86 99.09 428.29 90.62 423.02 81.97 C 418.01 82.31 413.01 81.93 408.01 82.07 C 411.54 87.08 415.76 91.67 418.42 97.24 L 417.40 97.16 C 413.86 91.79 409.80 86.69 406.68 81.09 Z" />
</g>
<g id="#512200e3">
<path fill="#512200" opacity="0.89" d=" M 461.39 80.98 C 467.29 80.93 473.20 80.93 479.11 81.06 C 477.24 86.84 472.50 91.19 469.41 96.35 C 466.45 99.99 464.11 104.12 460.91 107.53 C 461.82 103.51 464.92 100.46 467.24 97.18 C 471.00 92.31 474.42 87.18 477.74 82.00 C 472.61 82.32 467.38 81.56 462.31 82.38 C 456.86 91.18 451.19 99.87 445.61 108.59 C 444.65 109.94 443.46 111.11 442.30 112.28 C 441.76 111.28 441.24 110.27 440.72 109.27 L 441.59 108.67 C 441.87 109.12 442.44 110.02 442.73 110.47 C 446.08 106.51 448.34 101.62 451.48 97.43 C 454.77 91.94 458.67 86.80 461.39 80.98 Z" />
</g>
<g id="#5f2900e6">
<path fill="#5f2900" opacity="0.90" d=" M 546.03 81.07 C 551.27 81.10 556.51 80.76 561.74 81.06 C 562.71 82.46 564.50 83.61 564.32 85.53 C 563.06 84.47 561.91 83.31 560.90 82.02 C 556.27 82.02 551.65 82.10 547.03 82.07 C 547.25 100.57 547.05 119.07 547.35 137.57 C 547.19 139.41 547.09 141.25 547.02 143.09 C 548.22 143.05 549.43 143.01 550.65 142.97 C 553.09 142.98 555.54 143.03 558.00 143.05 C 557.97 129.03 558.03 115.01 557.98 100.99 C 557.90 99.44 558.35 97.96 558.86 96.52 C 562.81 101.29 567.20 105.77 570.38 111.11 C 565.45 108.17 563.19 102.38 559.06 98.51 C 558.72 113.82 559.29 129.16 558.89 144.46 C 554.72 143.89 550.02 144.98 546.16 143.89 C 546.00 122.96 546.23 102.00 546.03 81.07 Z" />
</g>
<g id="#f87c00fd">
<path fill="#f87c00" opacity="1.00" d=" M 595.26 81.38 C 599.41 81.46 603.57 81.55 607.72 81.27 C 607.70 81.63 607.65 82.35 607.62 82.70 C 607.41 103.11 607.27 123.55 607.70 143.96 C 603.75 143.24 599.72 143.86 595.75 143.42 C 595.65 142.87 595.46 141.78 595.36 141.23 C 598.57 143.42 602.76 142.27 606.07 140.92 C 605.66 139.10 605.27 137.29 604.88 135.47 C 603.12 135.87 601.32 136.24 599.52 135.99 C 597.91 137.15 596.11 137.97 594.18 138.37 C 592.67 136.71 591.09 135.12 589.22 133.86 L 588.56 133.37 C 588.44 133.09 588.19 132.52 588.07 132.24 C 586.99 129.77 584.80 128.01 582.61 126.55 C 582.60 126.52 582.57 126.46 582.55 126.42 C 581.67 124.12 580.05 122.25 578.40 120.48 C 581.39 119.45 583.49 121.65 585.39 123.60 C 586.71 123.43 588.04 123.25 589.38 123.08 C 589.48 123.55 589.68 124.49 589.78 124.97 C 590.75 124.10 591.73 123.24 592.72 122.39 C 592.40 121.29 592.09 120.20 591.78 119.12 C 593.39 120.13 593.60 122.38 595.49 123.10 C 595.31 109.20 595.67 95.28 595.26 81.38 M 596.28 82.28 C 596.42 89.73 596.04 97.21 596.54 104.64 C 597.59 109.72 597.05 114.89 597.28 120.02 C 598.73 117.50 597.08 114.27 598.82 111.87 C 599.67 114.05 599.54 116.40 599.47 118.70 C 600.87 118.58 602.28 118.46 603.70 118.34 C 603.87 116.83 603.75 115.21 604.60 113.88 C 605.53 118.55 604.60 123.52 606.28 128.03 C 607.13 124.75 606.56 121.32 606.68 117.98 C 606.76 106.00 606.55 94.01 606.94 82.03 C 603.39 82.31 599.83 82.37 596.28 82.28 Z" />
</g>
<g id="#361401e5">
<path fill="#361401" opacity="0.90" d=" M 694.99 81.00 C 713.06 80.86 731.14 81.11 749.21 80.90 C 749.23 84.94 749.23 88.99 749.05 93.03 C 731.01 92.98 712.96 93.02 694.92 93.01 C 694.97 89.01 694.95 85.01 694.99 81.00 M 695.70 81.97 C 695.79 85.36 695.80 88.75 695.62 92.13 C 713.06 91.94 730.50 91.87 747.94 92.14 C 748.01 88.74 748.02 85.33 747.97 81.93 C 730.55 82.17 713.12 82.02 695.70 81.97 Z" />
</g>
<g id="#471f00e3">
<path fill="#471f00" opacity="0.89" d=" M 827.88 80.96 C 832.81 81.04 837.75 80.77 842.68 81.16 C 844.10 84.59 847.44 86.99 848.38 90.58 C 845.45 88.42 843.74 85.12 841.63 82.25 C 837.35 82.04 833.06 82.10 828.78 82.09 C 829.26 97.16 828.90 112.25 829.07 127.33 C 828.94 132.66 829.01 137.99 829.03 143.32 C 832.35 143.19 835.69 143.13 839.03 143.10 C 838.98 141.86 838.94 140.61 838.90 139.37 C 839.04 125.10 838.99 110.82 839.03 96.55 C 842.32 100.92 845.89 105.08 849.07 109.53 C 852.54 115.39 857.56 120.09 860.95 126.00 C 862.56 129.17 866.82 128.39 869.69 127.89 C 873.37 123.54 875.73 117.88 880.46 114.54 C 877.65 119.81 873.66 124.44 870.11 129.26 C 866.98 128.83 862.49 130.84 860.59 127.38 C 858.18 123.83 855.47 120.51 852.78 117.18 C 848.99 111.00 844.51 105.28 840.02 99.60 C 840.00 114.47 840.04 129.33 840.03 144.20 C 836.06 144.64 832.07 144.09 828.11 144.51 C 827.64 123.33 828.03 102.14 827.88 80.96 Z" />
</g>
<g id="#3c1a00e3">
<path fill="#3c1a00" opacity="0.89" d=" M 889.50 81.09 C 895.33 80.78 901.17 81.03 907.01 80.92 C 906.92 102.11 907.14 123.30 906.90 144.49 C 902.57 144.09 898.13 144.75 893.87 144.02 C 893.60 129.45 893.88 114.85 893.71 100.28 C 893.39 99.84 892.76 98.95 892.44 98.50 C 893.10 97.33 893.73 96.13 894.39 94.95 C 895.56 109.72 894.63 124.57 895.10 139.38 C 895.03 140.64 894.99 141.91 894.97 143.19 C 898.63 143.17 902.30 143.18 905.97 143.24 C 905.85 129.72 906.10 116.20 905.87 102.68 C 906.02 95.81 905.96 88.94 905.88 82.07 C 900.67 82.20 895.44 81.73 890.26 82.25 C 884.89 90.11 878.90 97.53 873.46 105.36 L 872.50 104.88 C 877.78 96.68 884.52 89.49 889.50 81.09 Z" />
</g>
<g id="#502300da">
<path fill="#502300" opacity="0.85" d=" M 1006.46 81.09 C 1011.82 80.90 1017.18 80.99 1022.55 80.99 C 1026.59 91.22 1032.85 100.38 1037.51 110.32 L 1036.38 110.11 C 1031.46 100.80 1025.76 91.84 1021.60 82.15 C 1016.87 82.06 1012.14 82.08 1007.42 82.10 C 1002.77 91.40 998.00 100.66 993.10 109.82 C 992.71 110.22 991.95 111.01 991.56 111.41 C 992.65 107.00 995.65 103.43 997.48 99.34 C 1000.29 93.17 1003.70 87.29 1006.46 81.09 Z" />
</g>
<g id="#fb9400fd">
<path fill="#fb9400" opacity="1.00" d=" M 285.05 82.08 C 302.81 82.00 320.56 81.97 338.32 82.09 C 338.17 84.04 338.13 86.01 337.75 87.94 C 336.38 89.82 334.63 91.41 333.44 93.43 C 332.78 95.11 330.02 95.48 330.64 97.65 L 329.42 97.29 C 329.61 98.49 329.10 99.35 327.90 99.89 C 326.32 102.30 323.51 103.71 322.29 106.36 C 322.04 106.42 321.55 106.53 321.30 106.59 C 317.38 109.49 315.01 113.98 311.48 117.33 C 311.34 116.83 311.08 115.84 310.94 115.34 C 308.65 116.54 306.01 117.09 303.86 115.30 C 302.71 118.22 299.22 118.19 297.07 120.02 C 295.25 121.48 293.35 122.81 291.25 123.83 C 294.26 120.30 297.33 116.83 300.18 113.16 C 302.59 110.05 305.77 107.49 307.37 103.82 L 307.51 103.54 L 307.56 103.50 C 309.71 102.17 311.24 100.14 312.34 97.89 C 312.42 97.80 312.57 97.62 312.65 97.53 C 314.40 95.99 315.94 94.24 317.27 92.33 C 306.56 91.89 295.84 92.12 285.13 91.94 C 285.01 88.65 284.99 85.37 285.05 82.08 Z" />
</g>
<g id="#fc9000fe">
<path fill="#fc9000" opacity="1.00" d=" M 408.01 82.07 C 413.01 81.93 418.01 82.31 423.02 81.97 C 428.29 90.62 433.86 99.09 439.73 107.35 C 439.98 107.83 440.47 108.79 440.72 109.27 C 441.24 110.27 441.76 111.28 442.30 112.28 C 443.46 111.11 444.65 109.94 445.61 108.59 C 451.19 99.87 456.86 91.18 462.31 82.38 C 467.38 81.56 472.61 82.32 477.74 82.00 C 474.42 87.18 471.00 92.31 467.24 97.18 C 464.92 100.46 461.82 103.51 460.91 107.53 C 460.69 107.52 460.25 107.50 460.03 107.50 C 457.65 110.36 455.62 113.48 453.41 116.46 C 453.48 115.04 453.53 113.62 453.57 112.19 C 451.28 111.96 449.16 112.69 447.68 114.50 C 447.00 113.78 446.33 113.05 445.66 112.33 C 443.47 112.76 441.29 113.53 439.04 113.48 C 437.04 113.02 435.10 112.34 433.10 111.90 C 432.37 112.65 431.65 113.40 430.94 114.16 C 426.61 108.75 423.60 102.26 418.53 97.48 C 418.51 97.42 418.45 97.30 418.42 97.24 C 415.76 91.67 411.54 87.08 408.01 82.07 Z" />
</g>
<g id="#fd8f00fe">
<path fill="#fd8f00" opacity="1.00" d=" M 547.03 82.07 C 551.65 82.10 556.27 82.02 560.90 82.02 C 561.91 83.31 563.06 84.47 564.32 85.53 C 564.35 85.57 564.41 85.63 564.44 85.66 C 568.28 91.28 572.49 96.74 577.40 101.48 C 577.42 101.50 577.46 101.55 577.48 101.57 C 579.53 105.33 582.49 108.44 585.23 111.69 C 587.25 114.03 588.81 116.85 591.50 118.53 L 591.64 118.58 L 591.78 119.12 C 592.09 120.20 592.40 121.29 592.72 122.39 C 591.73 123.24 590.75 124.10 589.78 124.97 C 589.68 124.49 589.48 123.55 589.38 123.08 C 588.04 123.25 586.71 123.43 585.39 123.60 C 583.49 121.65 581.39 119.45 578.40 120.48 L 577.51 120.53 L 577.48 120.53 L 577.30 120.04 C 576.02 116.61 573.22 113.97 570.68 111.44 C 570.61 111.36 570.46 111.19 570.38 111.11 C 567.20 105.77 562.81 101.29 558.86 96.52 C 558.35 97.96 557.90 99.44 557.98 100.99 C 558.03 115.01 557.97 129.03 558.00 143.05 C 555.54 143.03 553.09 142.98 550.65 142.97 C 552.70 142.61 554.74 142.16 556.79 141.75 C 557.31 134.62 556.68 127.48 556.79 120.35 C 555.38 121.02 553.96 121.68 552.56 122.35 C 552.53 123.25 552.51 124.15 552.49 125.05 C 551.43 122.98 550.36 120.93 549.25 118.88 C 548.75 123.59 548.81 128.32 548.75 133.04 C 548.90 134.70 548.10 136.16 547.35 137.57 C 547.05 119.07 547.25 100.57 547.03 82.07 Z" />
</g>
<g id="#fc9100fd">
<path fill="#fc9100" opacity="1.00" d=" M 596.28 82.28 C 599.83 82.37 603.39 82.31 606.94 82.03 C 606.55 94.01 606.76 106.00 606.68 117.98 C 606.56 121.32 607.13 124.75 606.28 128.03 C 604.60 123.52 605.53 118.55 604.60 113.88 C 603.75 115.21 603.87 116.83 603.70 118.34 C 602.28 118.46 600.87 118.58 599.47 118.70 C 599.54 116.40 599.67 114.05 598.82 111.87 C 597.08 114.27 598.73 117.50 597.28 120.02 C 597.05 114.89 597.59 109.72 596.54 104.64 C 596.04 97.21 596.42 89.73 596.28 82.28 Z" />
</g>
<g id="#fb9500fd">
<path fill="#fb9500" opacity="1.00" d=" M 695.70 81.97 C 713.12 82.02 730.55 82.17 747.97 81.93 C 748.02 85.33 748.01 88.74 747.94 92.14 C 730.50 91.87 713.06 91.94 695.62 92.13 C 695.80 88.75 695.79 85.36 695.70 81.97 Z" />
</g>
<g id="#fd9300fe">
<path fill="#fd9300" opacity="1.00" d=" M 828.78 82.09 C 833.06 82.10 837.35 82.04 841.63 82.25 C 843.74 85.12 845.45 88.42 848.38 90.58 L 848.47 90.65 L 848.49 90.68 C 849.87 93.43 851.77 95.87 853.74 98.22 C 857.38 102.54 860.45 107.29 863.72 111.89 C 860.30 111.00 858.62 107.73 856.50 105.24 C 855.02 105.99 853.44 106.50 851.80 106.68 C 850.88 107.62 849.96 108.58 849.07 109.53 C 845.89 105.08 842.32 100.92 839.03 96.55 C 838.99 110.82 839.04 125.10 838.90 139.37 C 837.58 132.93 837.98 126.27 836.52 119.86 C 836.13 121.16 835.75 122.46 835.39 123.76 C 834.48 123.68 833.58 123.60 832.69 123.51 C 832.36 121.60 832.01 119.68 831.63 117.78 C 829.87 120.74 831.01 124.45 829.07 127.33 C 828.90 112.25 829.26 97.16 828.78 82.09 Z" />
</g>
<g id="#fc9400fe">
<path fill="#fc9400" opacity="1.00" d=" M 890.26 82.25 C 895.44 81.73 900.67 82.20 905.88 82.07 C 905.96 88.94 906.02 95.81 905.87 102.68 C 904.83 107.44 905.48 112.35 904.64 117.13 C 904.26 115.89 903.89 114.65 903.54 113.42 C 901.29 114.25 898.98 115.37 896.54 114.75 C 895.76 122.94 896.95 131.31 895.10 139.38 C 894.63 124.57 895.56 109.72 894.39 94.95 C 893.73 96.13 893.10 97.33 892.44 98.50 L 892.28 98.75 C 889.74 101.44 887.38 104.29 885.09 107.19 C 884.75 106.82 884.09 106.06 883.76 105.69 C 882.56 106.16 881.39 106.77 880.12 106.96 C 879.01 106.18 878.03 105.24 877.04 104.34 C 875.87 104.79 874.76 105.61 873.46 105.36 C 878.90 97.53 884.89 90.11 890.26 82.25 Z" />
</g>
<g id="#fc9500fe">
<path fill="#fc9500" opacity="1.00" d=" M 1007.42 82.10 C 1012.14 82.08 1016.87 82.06 1021.60 82.15 C 1025.76 91.84 1031.46 100.80 1036.38 110.11 C 1036.66 110.23 1037.21 110.47 1037.49 110.59 C 1037.50 110.81 1037.50 111.26 1037.51 111.48 C 1037.75 112.15 1038.22 113.48 1038.46 114.15 C 1036.84 114.91 1035.15 115.49 1033.43 115.91 C 1032.35 113.30 1030.16 111.75 1027.41 111.35 C 1027.37 112.77 1027.32 114.19 1027.33 115.62 C 1024.16 108.88 1020.30 102.49 1017.23 95.71 C 1016.49 94.05 1015.50 92.54 1014.31 91.19 C 1014.23 91.76 1014.07 92.89 1013.99 93.46 C 1013.73 94.08 1013.21 95.33 1012.95 95.95 C 1011.78 97.05 1010.74 98.43 1010.75 100.11 C 1010.72 100.35 1010.66 100.83 1010.63 101.06 C 1007.28 103.62 1006.67 108.11 1004.36 111.45 C 1004.38 110.03 1004.41 108.61 1004.43 107.19 C 1002.05 107.21 999.74 107.80 998.07 109.59 C 997.53 108.84 997.02 108.10 996.52 107.35 C 996.28 107.87 995.80 108.93 995.57 109.45 C 994.95 109.55 993.71 109.73 993.10 109.82 C 998.00 100.66 1002.77 91.40 1007.42 82.10 Z" />
</g>
<g id="#904d00d7">
<path fill="#904d00" opacity="0.84" d=" M 123.96 91.02 C 126.20 88.15 128.54 85.36 131.15 82.82 C 126.82 90.57 120.11 96.66 114.63 103.59 C 113.28 105.41 111.73 107.08 109.79 108.29 C 113.94 102.07 119.38 96.89 123.96 91.02 Z" />
</g>
<g id="#1f0f0031">
<path fill="#1f0f00" opacity="0.19" d=" M 607.62 82.70 C 609.59 83.12 608.60 85.53 608.91 86.91 C 608.46 105.79 609.35 124.72 608.62 143.58 L 607.70 143.96 C 607.27 123.55 607.41 103.11 607.62 82.70 Z" />
</g>
<g id="#6f3700ca">
<path fill="#6f3700" opacity="0.79" d=" M 144.49 90.35 C 145.76 87.68 147.79 85.47 150.28 83.89 C 148.72 86.30 147.20 89.09 144.49 90.35 Z" />
</g>
<g id="#7c4200b4">
<path fill="#7c4200" opacity="0.71" d=" M 93.76 92.29 C 95.27 89.97 96.95 87.68 99.15 85.96 C 97.79 88.41 96.00 90.59 93.76 92.29 Z" />
</g>
<g id="#995100de">
<path fill="#995100" opacity="0.87" d=" M 108.78 96.42 C 110.65 92.21 113.78 88.62 117.48 85.92 C 115.01 89.75 111.87 93.09 108.78 96.42 Z" />
</g>
<g id="#4e2300d8">
<path fill="#4e2300" opacity="0.85" d=" M 564.44 85.66 C 567.57 86.99 568.86 90.49 571.24 92.74 C 573.30 95.63 576.30 98.02 577.40 101.48 C 572.49 96.74 568.28 91.28 564.44 85.66 Z" />
</g>
<g id="#793d00d1">
<path fill="#793d00" opacity="0.82" d=" M 129.25 107.24 C 134.44 101.83 138.73 95.58 144.31 90.56 C 143.19 93.72 140.42 95.85 138.38 98.40 C 134.62 102.16 132.20 107.34 127.64 110.24 C 128.08 109.18 128.61 108.18 129.25 107.24 Z" />
</g>
<g id="#562600df">
<path fill="#562600" opacity="0.87" d=" M 848.49 90.68 C 850.59 91.40 851.42 93.69 852.87 95.20 C 857.72 100.96 861.88 107.25 866.47 113.19 C 868.05 110.59 869.40 107.17 872.33 105.91 C 870.81 109.33 867.98 111.96 866.44 115.38 C 865.45 114.28 864.53 113.12 863.72 111.89 C 860.45 107.29 857.38 102.54 853.74 98.22 C 851.77 95.87 849.87 93.43 848.49 90.68 Z" />
</g>
<g id="#512400e0">
<path fill="#512400" opacity="0.88" d=" M 1014.31 91.19 C 1015.50 92.54 1016.49 94.05 1017.23 95.71 C 1020.30 102.49 1024.16 108.88 1027.33 115.62 C 1031.93 124.75 1037.25 133.54 1041.21 142.99 C 1045.64 142.99 1050.08 142.98 1054.52 143.01 C 1048.64 133.68 1043.85 123.75 1038.46 114.15 C 1038.22 113.48 1037.75 112.15 1037.51 111.48 C 1040.04 113.01 1040.77 116.27 1042.34 118.66 C 1046.61 127.39 1052.24 135.47 1055.74 144.55 C 1050.75 144.27 1045.74 144.24 1040.75 144.45 C 1034.80 132.16 1028.36 120.11 1022.14 107.94 C 1019.16 103.26 1017.72 97.65 1013.99 93.46 C 1014.07 92.89 1014.23 91.76 1014.31 91.19 Z" />
<path fill="#512400" opacity="0.88" d=" M 299.72 111.72 C 302.50 109.31 303.99 105.43 307.37 103.82 C 305.77 107.49 302.59 110.05 300.18 113.16 C 297.33 116.83 294.26 120.30 291.25 123.83 C 289.03 126.15 287.04 128.70 284.44 130.63 C 288.68 123.74 294.86 118.19 299.72 111.72 Z" />
</g>
<g id="#7b4000cf">
<path fill="#7b4000" opacity="0.81" d=" M 85.48 102.43 C 87.31 98.80 90.22 95.55 93.33 92.98 C 91.33 96.56 88.78 99.96 85.48 102.43 Z" />
</g>
<g id="#391700cf">
<path fill="#391700" opacity="0.81" d=" M 1010.75 100.11 C 1010.74 98.43 1011.78 97.05 1012.95 95.95 C 1013.54 97.34 1012.44 100.33 1010.75 100.11 Z" />
</g>
<g id="#8c4800e5">
<path fill="#8c4800" opacity="0.90" d=" M 101.95 103.04 C 103.80 100.55 105.82 98.13 108.61 96.64 C 106.82 99.76 104.06 102.12 101.91 104.97 C 100.42 106.94 98.86 108.90 96.87 110.40 C 97.78 107.47 100.20 105.45 101.95 103.04 Z" />
</g>
<g id="#4e2300c3">
<path fill="#4e2300" opacity="0.76" d=" M 307.56 103.50 C 308.31 101.12 310.11 99.02 312.34 97.89 C 311.24 100.14 309.71 102.17 307.56 103.50 Z" />
</g>
<g id="#582800dd">
<path fill="#582800" opacity="0.87" d=" M 418.53 97.48 C 423.60 102.26 426.61 108.75 430.94 114.16 C 431.50 115.18 432.00 116.24 432.42 117.33 C 430.30 116.59 429.48 114.38 428.30 112.69 C 425.38 107.91 421.82 103.56 418.83 98.85 L 418.53 97.48 Z" />
</g>
<g id="#552500d1">
<path fill="#552500" opacity="0.82" d=" M 885.09 107.19 C 887.38 104.29 889.74 101.44 892.28 98.75 C 891.91 101.65 889.17 103.40 887.80 105.84 C 885.40 108.61 883.67 112.07 880.74 114.31 C 881.57 111.61 883.33 109.36 885.09 107.19 Z" />
</g>
<g id="#552400e2">
<path fill="#552400" opacity="0.89" d=" M 577.48 101.57 C 579.47 102.04 580.31 104.07 581.53 105.48 C 584.51 109.21 587.64 112.82 590.77 116.43 C 590.95 116.96 591.32 118.00 591.50 118.53 C 588.81 116.85 587.25 114.03 585.23 111.69 C 582.49 108.44 579.53 105.33 577.48 101.57 Z" />
</g>
<g id="#622c00eb">
<path fill="#622c00" opacity="0.92" d=" M 1004.36 111.45 C 1006.67 108.11 1007.28 103.62 1010.63 101.06 C 1008.63 105.86 1006.49 110.73 1003.56 115.02 L 1002.64 115.51 C 1003.04 114.10 1003.69 112.76 1004.36 111.45 Z" />
</g>
<g id="#f77c00fe">
<path fill="#f77c00" opacity="1.00" d=" M 904.64 117.13 C 905.48 112.35 904.83 107.44 905.87 102.68 C 906.10 116.20 905.85 129.72 905.97 143.24 C 902.30 143.18 898.63 143.17 894.97 143.19 C 894.99 141.91 895.03 140.64 895.10 139.38 C 896.95 131.31 895.76 122.94 896.54 114.75 C 898.98 115.37 901.29 114.25 903.54 113.42 C 903.89 114.65 904.26 115.89 904.64 117.13 Z" />
</g>
<g id="#6f3800d1">
<path fill="#6f3800" opacity="0.82" d=" M 83.38 104.09 L 84.32 103.85 C 82.95 106.99 80.35 109.30 78.20 111.89 C 75.23 114.97 73.25 118.99 69.59 121.40 C 73.20 114.92 78.84 109.89 83.38 104.09 Z" />
</g>
<g id="#fa8700fe">
<path fill="#fa8700" opacity="1.00" d=" M 78.20 111.89 C 82.25 111.21 84.83 107.66 86.43 104.17 C 87.00 105.61 87.71 107.02 88.07 108.54 C 87.69 109.45 86.83 110.05 86.23 110.81 C 86.83 111.44 87.44 112.08 88.05 112.72 C 89.35 111.47 90.82 109.79 92.65 111.21 C 91.27 113.31 87.70 115.45 90.22 118.13 C 89.47 119.46 88.51 120.66 87.51 121.81 C 85.16 122.82 83.68 124.87 82.87 127.23 C 82.75 127.36 82.50 127.63 82.38 127.76 C 79.65 129.07 77.88 131.54 76.85 134.32 C 76.32 134.86 75.77 135.39 75.20 135.89 C 73.71 136.18 72.48 137.62 73.09 139.18 C 72.91 139.31 72.56 139.57 72.38 139.70 C 68.08 143.17 64.36 147.61 61.70 152.44 C 58.10 157.27 54.18 161.88 49.97 166.18 C 50.07 164.26 49.76 162.37 48.79 160.69 C 47.82 162.25 47.07 163.92 46.41 165.63 C 45.04 164.40 43.65 163.20 42.25 162.01 C 42.26 163.12 42.27 164.24 42.28 165.36 C 41.15 164.28 40.41 162.92 39.89 161.46 C 38.53 162.43 37.07 163.36 35.33 163.36 C 38.58 158.99 42.75 155.31 45.49 150.56 C 46.41 149.06 47.13 147.36 48.62 146.32 C 52.33 143.53 55.12 139.68 57.34 135.66 L 57.45 135.47 L 57.59 135.36 C 62.21 131.70 66.13 127.00 69.24 122.00 L 69.55 121.43 L 69.59 121.40 C 73.25 118.99 75.23 114.97 78.20 111.89 Z" />
</g>
<g id="#f98300fe">
<path fill="#f98300" opacity="1.00" d=" M 873.46 105.36 C 874.76 105.61 875.87 104.79 877.04 104.34 C 878.03 105.24 879.01 106.18 880.12 106.96 C 881.39 106.77 882.56 106.16 883.76 105.69 C 884.09 106.06 884.75 106.82 885.09 107.19 C 883.33 109.36 881.57 111.61 880.74 114.31 L 880.71 114.37 L 880.46 114.54 C 875.73 117.88 873.37 123.54 869.69 127.89 C 866.82 128.39 862.56 129.17 860.95 126.00 C 857.56 120.09 852.54 115.39 849.07 109.53 C 849.96 108.58 850.88 107.62 851.80 106.68 C 853.44 106.50 855.02 105.99 856.50 105.24 C 858.62 107.73 860.30 111.00 863.72 111.89 C 864.53 113.12 865.45 114.28 866.44 115.38 C 867.98 111.96 870.81 109.33 872.33 105.91 C 872.38 105.65 872.46 105.14 872.50 104.88 L 873.46 105.36 Z" />
</g>
<g id="#26130034">
<path fill="#261300" opacity="0.20" d=" M 694.62 105.33 C 706.75 104.91 718.89 105.08 731.02 105.09 C 734.79 105.25 738.64 104.92 742.34 105.81 C 731.89 106.24 721.43 105.77 710.98 105.97 C 705.72 105.85 700.43 106.26 695.19 105.72 L 694.62 105.33 Z" />
</g>
<g id="#441b01f8">
<path fill="#441b01" opacity="0.97" d=" M 695.19 105.72 C 700.43 106.26 705.72 105.85 710.98 105.97 C 721.43 105.77 731.89 106.24 742.34 105.81 C 741.94 109.86 742.17 113.92 742.20 117.97 C 726.48 117.99 710.76 117.97 695.04 117.99 C 694.95 113.90 694.69 109.79 695.19 105.72 M 695.76 107.01 L 695.71 108.07 C 695.74 111.05 695.75 114.02 695.65 117.00 C 710.75 116.95 725.84 117.08 740.94 116.94 C 741.08 113.98 741.21 111.02 741.03 108.06 L 741.55 106.86 C 726.29 107.14 711.02 106.90 695.76 107.01 Z" />
</g>
<g id="#fc9100fe">
<path fill="#fc9100" opacity="1.00" d=" M 118.56 113.60 C 119.61 111.26 119.90 108.43 122.11 106.82 C 122.28 107.32 122.60 108.34 122.76 108.84 C 123.15 108.88 123.93 108.94 124.33 108.98 C 124.39 108.49 124.52 107.51 124.59 107.02 C 126.14 107.09 127.69 107.16 129.25 107.24 C 128.61 108.18 128.08 109.18 127.64 110.24 L 127.48 110.59 L 127.32 110.72 C 124.48 112.69 122.25 115.38 120.58 118.37 C 120.53 118.42 120.42 118.52 120.37 118.58 C 118.27 119.98 116.66 121.95 115.68 124.28 L 115.57 124.50 L 115.24 124.72 C 112.64 126.11 110.91 128.59 109.66 131.18 L 109.45 131.59 L 109.19 131.76 C 106.33 133.33 104.51 136.09 102.63 138.66 C 100.69 141.35 98.05 143.49 96.54 146.50 C 96.35 146.82 95.95 147.48 95.76 147.80 C 93.12 150.86 91.13 154.73 87.65 156.90 C 87.36 155.60 87.04 154.30 86.72 153.02 C 88.17 151.90 93.20 150.39 90.81 148.20 C 89.24 149.01 87.88 150.14 86.48 151.19 C 86.28 149.17 86.53 147.16 86.59 145.15 C 85.19 142.89 83.64 140.53 84.94 137.79 C 85.52 137.16 86.15 136.58 86.82 136.04 C 88.73 135.57 90.35 133.91 89.81 131.82 C 90.01 131.66 90.40 131.34 90.59 131.18 C 92.67 129.81 94.11 127.78 95.12 125.55 C 95.21 125.43 95.40 125.19 95.49 125.07 C 97.76 123.39 99.83 121.40 101.07 118.82 C 101.18 118.68 101.39 118.41 101.50 118.28 C 103.45 116.80 104.94 114.84 106.08 112.69 C 107.27 111.29 108.45 109.88 109.64 108.47 C 111.07 110.23 111.87 112.32 111.50 114.59 C 110.41 115.11 109.33 115.63 108.25 116.16 C 108.55 117.03 108.86 117.90 109.16 118.77 C 110.57 117.61 111.89 116.10 113.83 115.91 C 115.45 115.33 117.99 115.67 118.56 113.60 Z" />
</g>
<g id="#582700d5">
<path fill="#582700" opacity="0.84" d=" M 311.48 117.33 C 315.01 113.98 317.38 109.49 321.30 106.59 C 321.54 108.19 320.08 109.16 319.22 110.25 C 316.68 112.99 314.59 116.14 311.66 118.51 L 311.48 117.33 Z" />
</g>
<g id="#fab400fd">
<path fill="#fab400" opacity="1.00" d=" M 695.76 107.01 C 711.02 106.90 726.29 107.14 741.55 106.86 L 741.03 108.06 C 725.92 107.97 710.81 107.80 695.71 108.07 L 695.76 107.01 Z" />
</g>
<g id="#f87e00fd">
<path fill="#f87e00" opacity="1.00" d=" M 996.52 107.35 C 997.02 108.10 997.53 108.84 998.07 109.59 C 999.74 107.80 1002.05 107.21 1004.43 107.19 C 1004.41 108.61 1004.38 110.03 1004.36 111.45 C 1003.69 112.76 1003.04 114.10 1002.64 115.51 C 1002.58 115.70 1002.47 116.07 1002.42 116.26 L 1002.03 116.65 C 999.69 118.94 998.91 122.29 997.15 124.99 C 994.25 130.93 990.58 136.56 988.66 142.93 C 984.19 143.08 979.71 142.79 975.26 143.36 C 976.01 141.89 976.78 140.42 977.44 138.90 C 977.45 138.57 977.46 137.93 977.47 137.60 C 980.48 135.38 981.50 131.51 983.41 128.43 C 985.71 123.19 989.26 118.53 990.99 113.05 C 991.14 112.64 991.42 111.82 991.56 111.41 C 991.95 111.01 992.71 110.22 993.10 109.82 C 993.71 109.73 994.95 109.55 995.57 109.45 C 995.80 108.93 996.28 107.87 996.52 107.35 Z" />
<path fill="#f87e00" opacity="1.00" d=" M 1027.41 111.35 C 1030.16 111.75 1032.35 113.30 1033.43 115.91 C 1035.15 115.49 1036.84 114.91 1038.46 114.15 C 1043.85 123.75 1048.64 133.68 1054.52 143.01 C 1050.08 142.98 1045.64 142.99 1041.21 142.99 C 1037.25 133.54 1031.93 124.75 1027.33 115.62 C 1027.32 114.19 1027.37 112.77 1027.41 111.35 Z" />
</g>
<g id="#602b00d2">
<path fill="#602b00" opacity="0.82" d=" M 453.41 116.46 C 455.62 113.48 457.65 110.36 460.03 107.50 L 460.35 108.73 C 457.52 113.35 453.90 117.42 451.02 121.98 C 450.33 129.42 451.40 136.97 450.54 144.39 C 445.76 144.27 440.98 144.35 436.20 144.39 C 435.77 137.55 436.42 130.69 435.97 123.85 C 435.17 121.64 433.06 120.10 432.64 117.70 C 434.75 119.59 437.29 121.83 437.25 124.93 C 437.37 131.00 437.49 137.07 437.45 143.14 C 441.55 143.05 445.66 143.07 449.77 143.15 C 449.21 136.20 449.77 129.22 449.27 122.26 C 450.64 120.33 452.05 118.41 453.41 116.46 Z" />
</g>
<g id="#f88600fd">
<path fill="#f88600" opacity="1.00" d=" M 695.71 108.07 C 710.81 107.80 725.92 107.97 741.03 108.06 C 741.21 111.02 741.08 113.98 740.94 116.94 C 725.84 117.08 710.75 116.95 695.65 117.00 C 695.75 114.02 695.74 111.05 695.71 108.07 Z" />
</g>
<g id="#854100e4">
<path fill="#854100" opacity="0.89" d=" M 90.56 117.55 C 91.81 114.67 93.89 112.25 96.58 110.62 C 95.37 113.53 92.91 115.57 90.56 117.55 Z" />
</g>
<g id="#713800d0">
<path fill="#713800" opacity="0.82" d=" M 120.58 118.37 C 122.25 115.38 124.48 112.69 127.32 110.72 C 125.67 113.70 123.54 116.61 120.58 118.37 Z" />
</g>
<g id="#f77a00fd">
<path fill="#f77a00" opacity="1.00" d=" M 430.94 114.16 C 431.65 113.40 432.37 112.65 433.10 111.90 C 435.10 112.34 437.04 113.02 439.04 113.48 C 441.29 113.53 443.47 112.76 445.66 112.33 C 446.33 113.05 447.00 113.78 447.68 114.50 C 449.16 112.69 451.28 111.96 453.57 112.19 C 453.53 113.62 453.48 115.04 453.41 116.46 C 452.05 118.41 450.64 120.33 449.27 122.26 C 449.77 129.22 449.21 136.20 449.77 143.15 C 445.66 143.07 441.55 143.05 437.45 143.14 C 437.49 137.07 437.37 131.00 437.25 124.93 C 437.29 121.83 434.75 119.59 432.64 117.70 L 432.52 117.59 L 432.42 117.33 C 432.00 116.24 431.50 115.18 430.94 114.16 Z" />
</g>
<g id="#4e2300d2">
<path fill="#4e2300" opacity="0.82" d=" M 570.68 111.44 C 573.22 113.97 576.02 116.61 577.30 120.04 C 574.59 117.72 571.64 114.96 570.68 111.44 Z" />
</g>
<g id="#532500d2">
<path fill="#532500" opacity="0.82" d=" M 990.78 112.03 C 990.83 112.28 990.94 112.79 990.99 113.05 C 989.26 118.53 985.71 123.19 983.41 128.43 C 981.50 131.51 980.48 135.38 977.47 137.60 C 981.31 128.81 986.47 120.61 990.78 112.03 Z" />
</g>
<g id="#6d3700aa">
<path fill="#6d3700" opacity="0.67" d=" M 101.50 118.28 C 102.65 116.13 104.22 114.26 106.08 112.69 C 104.94 114.84 103.45 116.80 101.50 118.28 Z" />
</g>
<g id="#f77d00fd">
<path fill="#f77d00" opacity="1.00" d=" M 303.86 115.30 C 306.01 117.09 308.65 116.54 310.94 115.34 C 311.08 115.84 311.34 116.83 311.48 117.33 L 311.66 118.51 C 310.53 119.56 309.42 120.63 308.26 121.64 C 304.18 125.37 300.51 129.55 297.14 133.93 C 297.51 133.96 298.24 134.02 298.61 134.05 C 298.84 134.59 299.30 135.66 299.53 136.20 C 297.62 136.29 295.98 135.19 294.33 134.39 C 293.59 135.21 292.86 136.02 292.12 136.84 C 291.24 136.21 290.36 135.59 289.47 134.96 C 289.58 135.81 289.69 136.66 289.80 137.52 C 288.04 136.79 286.30 135.90 284.40 135.61 C 282.27 135.85 281.02 138.65 278.72 138.28 L 278.30 137.15 C 280.85 135.49 281.79 132.26 284.44 130.63 C 287.04 128.70 289.03 126.15 291.25 123.83 C 293.35 122.81 295.25 121.48 297.07 120.02 C 299.22 118.19 302.71 118.22 303.86 115.30 Z" />
</g>
<g id="#622b00e1">
<path fill="#622b00" opacity="0.88" d=" M 997.15 124.99 C 998.91 122.29 999.69 118.94 1002.03 116.65 C 1002.05 118.67 1000.82 120.33 1000.01 122.08 C 996.36 129.52 991.84 136.54 989.04 144.38 C 983.92 144.32 978.81 144.23 973.70 144.41 C 974.64 142.53 975.47 140.59 976.20 138.61 L 977.44 138.90 C 976.78 140.42 976.01 141.89 975.26 143.36 C 979.71 142.79 984.19 143.08 988.66 142.93 C 990.58 136.56 994.25 130.93 997.15 124.99 Z" />
</g>
<g id="#f67800ff">
<path fill="#f67800" opacity="1.00" d=" M 829.07 127.33 C 831.01 124.45 829.87 120.74 831.63 117.78 C 832.01 119.68 832.36 121.60 832.69 123.51 C 833.58 123.60 834.48 123.68 835.39 123.76 C 835.75 122.46 836.13 121.16 836.52 119.86 C 837.98 126.27 837.58 132.93 838.90 139.37 C 838.94 140.61 838.98 141.86 839.03 143.10 C 835.69 143.13 832.35 143.19 829.03 143.32 C 829.01 137.99 828.94 132.66 829.07 127.33 Z" />
</g>
<g id="#6f3a00a9">
<path fill="#6f3a00" opacity="0.66" d=" M 95.49 125.07 C 96.97 122.67 98.99 120.69 101.07 118.82 C 99.83 121.40 97.76 123.39 95.49 125.07 Z" />
</g>
<g id="#683000d1">
<path fill="#683000" opacity="0.82" d=" M 115.68 124.28 C 116.66 121.95 118.27 119.98 120.37 118.58 C 119.41 120.87 117.93 123.08 115.68 124.28 Z" />
</g>
<g id="#f87800fe">
<path fill="#f87800" opacity="1.00" d=" M 549.25 118.88 C 550.36 120.93 551.43 122.98 552.49 125.05 C 552.51 124.15 552.53 123.25 552.56 122.35 C 553.96 121.68 555.38 121.02 556.79 120.35 C 556.68 127.48 557.31 134.62 556.79 141.75 C 554.74 142.16 552.70 142.61 550.65 142.97 C 549.43 143.01 548.22 143.05 547.02 143.09 C 547.09 141.25 547.19 139.41 547.35 137.57 C 548.10 136.16 548.90 134.70 548.75 133.04 C 548.81 128.32 548.75 123.59 549.25 118.88 Z" />
</g>
<g id="#3c1900d5">
<path fill="#3c1900" opacity="0.84" d=" M 577.51 120.53 L 578.40 120.48 C 580.05 122.25 581.67 124.12 582.55 126.42 C 580.03 125.49 578.68 122.78 577.51 120.53 Z" />
</g>
<g id="#703801db">
<path fill="#703801" opacity="0.86" d=" M 65.96 124.93 C 66.89 123.82 67.63 122.22 69.24 122.00 C 66.13 127.00 62.21 131.70 57.59 135.36 C 59.54 131.25 63.45 128.64 65.96 124.93 Z" />
</g>
<g id="#804200d0">
<path fill="#804200" opacity="0.82" d=" M 82.87 127.23 C 83.68 124.87 85.16 122.82 87.51 121.81 C 86.10 123.73 84.59 125.58 82.87 127.23 Z" />
</g>
<g id="#471d00bc">
<path fill="#471d00" opacity="0.74" d=" M 297.14 133.93 C 300.51 129.55 304.18 125.37 308.26 121.64 L 309.31 121.44 C 306.19 125.60 302.62 129.40 298.87 133.00 C 312.28 132.82 325.68 132.97 339.09 132.81 C 338.82 136.72 339.31 140.63 339.05 144.53 C 318.01 143.98 296.92 144.97 275.89 144.22 C 276.36 142.29 274.93 139.18 277.42 138.34 C 277.22 140.05 277.02 141.76 276.82 143.47 C 297.19 143.06 317.56 143.39 337.94 143.22 C 337.89 140.57 337.81 137.93 337.91 135.29 L 338.00 133.94 C 324.87 134.09 311.74 133.93 298.61 134.05 C 298.24 134.02 297.51 133.96 297.14 133.93 Z" />
</g>
<g id="#773b00de">
<path fill="#773b00" opacity="0.87" d=" M 109.66 131.18 C 110.91 128.59 112.64 126.11 115.24 124.72 C 113.77 127.11 112.33 129.95 109.66 131.18 Z" />
</g>
<g id="#824600d6">
<path fill="#824600" opacity="0.84" d=" M 90.59 131.18 C 91.81 129.08 93.32 127.18 95.12 125.55 C 94.11 127.78 92.67 129.81 90.59 131.18 Z" />
</g>
<g id="#552400d5">
<path fill="#552400" opacity="0.84" d=" M 582.61 126.55 C 584.80 128.01 586.99 129.77 588.07 132.24 L 588.39 133.68 C 586.13 131.61 584.01 129.30 582.61 126.55 Z" />
</g>
<g id="#934b00d9">
<path fill="#934b00" opacity="0.85" d=" M 76.85 134.32 C 77.88 131.54 79.65 129.07 82.38 127.76 C 80.68 130.06 78.89 132.31 76.85 134.32 Z" />
</g>
<g id="#974d00eb">
<path fill="#974d00" opacity="0.92" d=" M 86.82 136.04 C 86.81 134.10 88.36 132.82 89.81 131.82 C 90.35 133.91 88.73 135.57 86.82 136.04 Z" />
</g>
<g id="#804000d7">
<path fill="#804000" opacity="0.84" d=" M 102.63 138.66 C 104.51 136.09 106.33 133.33 109.19 131.76 C 105.90 136.55 102.12 140.99 98.31 145.35 C 97.86 145.63 96.98 146.21 96.54 146.50 C 98.05 143.49 100.69 141.35 102.63 138.66 Z" />
</g>
<g id="#5f2700c7">
<path fill="#5f2700" opacity="0.78" d=" M 695.01 132.13 C 705.62 132.69 716.27 132.17 726.90 132.30 C 734.30 132.19 741.73 132.59 749.12 131.93 C 750.33 136.00 749.86 140.64 749.22 144.77 C 745.20 143.99 741.11 144.54 737.07 144.42 C 722.98 144.25 708.88 144.65 694.80 144.20 C 694.99 140.18 694.92 136.15 695.01 132.13 M 696.54 133.88 L 695.85 133.86 L 695.91 135.19 C 695.84 137.87 695.83 140.56 695.86 143.25 C 713.43 142.85 731.01 143.25 748.58 143.03 C 748.49 140.37 748.52 137.70 748.66 135.03 L 748.59 133.63 C 744.19 134.03 739.78 133.92 735.37 133.91 C 734.33 133.29 733.21 133.00 732.02 133.03 C 721.34 132.96 710.66 133.05 699.98 133.00 C 698.73 132.91 697.58 133.20 696.54 133.88 Z" />
</g>
<g id="#531b00fc">
<path fill="#531b00" opacity="1.00" d=" M 696.54 133.88 C 697.58 133.20 698.73 132.91 699.98 133.00 C 710.66 133.05 721.34 132.96 732.02 133.03 C 733.21 133.00 734.33 133.29 735.37 133.91 C 722.43 134.00 709.48 134.13 696.54 133.88 Z" />
</g>
<g id="#f17400fc">
<path fill="#f17400" opacity="1.00" d=" M 294.33 134.39 C 295.98 135.19 297.62 136.29 299.53 136.20 C 308.02 136.06 316.51 135.38 325.00 135.80 C 329.29 135.80 333.72 136.58 337.91 135.29 C 337.81 137.93 337.89 140.57 337.94 143.22 C 317.56 143.39 297.19 143.06 276.82 143.47 C 277.02 141.76 277.22 140.05 277.42 138.34 L 277.44 138.21 C 277.76 138.23 278.40 138.26 278.72 138.28 C 281.02 138.65 282.27 135.85 284.40 135.61 C 286.30 135.90 288.04 136.79 289.80 137.52 C 289.69 136.66 289.58 135.81 289.47 134.96 C 290.36 135.59 291.24 136.21 292.12 136.84 C 292.86 136.02 293.59 135.21 294.33 134.39 Z" />
</g>
<g id="#f58a00fc">
<path fill="#f58a00" opacity="1.00" d=" M 298.61 134.05 C 311.74 133.93 324.87 134.09 338.00 133.94 L 337.91 135.29 C 333.72 136.58 329.29 135.80 325.00 135.80 C 316.51 135.38 308.02 136.06 299.53 136.20 C 299.30 135.66 298.84 134.59 298.61 134.05 Z" />
</g>
<g id="#f07200fd">
<path fill="#f07200" opacity="1.00" d=" M 589.22 133.86 C 591.09 135.12 592.67 136.71 594.18 138.37 C 596.11 137.97 597.91 137.15 599.52 135.99 C 601.32 136.24 603.12 135.87 604.88 135.47 C 605.27 137.29 605.66 139.10 606.07 140.92 C 602.76 142.27 598.57 143.42 595.36 141.23 C 593.95 139.78 591.85 138.65 591.37 136.54 L 590.50 136.42 L 590.49 135.61 C 590.17 135.17 589.54 134.30 589.22 133.86 Z" />
</g>
<g id="#f9a500fa">
<path fill="#f9a500" opacity="0.98" d=" M 695.85 133.86 L 696.54 133.88 C 709.48 134.13 722.43 134.00 735.37 133.91 C 739.78 133.92 744.19 134.03 748.59 133.63 L 748.66 135.03 C 731.07 134.98 713.49 135.00 695.91 135.19 L 695.85 133.86 Z" />
</g>
<g id="#f27300fc">
<path fill="#f27300" opacity="1.00" d=" M 695.91 135.19 C 713.49 135.00 731.07 134.98 748.66 135.03 C 748.52 137.70 748.49 140.37 748.58 143.03 C 731.01 143.25 713.43 142.85 695.86 143.25 C 695.83 140.56 695.84 137.87 695.91 135.19 Z" />
</g>
<g id="#6e3600da">
<path fill="#6e3600" opacity="0.85" d=" M 48.62 146.32 C 50.85 142.33 53.83 138.56 57.34 135.66 C 55.12 139.68 52.33 143.53 48.62 146.32 Z" />
</g>
<g id="#793901c8">
<path fill="#793901" opacity="0.78" d=" M 73.09 139.18 C 72.48 137.62 73.71 136.18 75.20 135.89 C 75.40 137.35 74.30 138.55 73.09 139.18 Z" />
</g>
<g id="#f87a00fe">
<path fill="#f87a00" opacity="1.00" d=" M 80.09 143.70 C 81.75 141.77 83.27 139.72 84.94 137.79 C 83.64 140.53 85.19 142.89 86.59 145.15 C 86.53 147.16 86.28 149.17 86.48 151.19 C 87.88 150.14 89.24 149.01 90.81 148.20 C 93.20 150.39 88.17 151.90 86.72 153.02 C 87.04 154.30 87.36 155.60 87.65 156.90 C 86.85 159.18 85.12 161.34 83.18 162.84 C 81.36 163.85 79.39 165.32 79.53 167.64 C 82.42 169.82 86.31 169.06 89.70 169.34 C 88.42 170.37 85.15 172.89 88.10 173.97 C 94.21 175.60 100.71 174.59 106.98 175.09 C 119.63 174.13 132.32 175.36 144.97 174.39 C 156.84 174.37 169.41 173.75 180.09 168.08 C 182.10 168.54 185.35 167.52 186.58 169.49 C 185.41 171.19 183.38 172.55 183.61 174.87 C 182.97 175.73 182.32 176.57 181.68 177.42 L 181.59 177.54 L 180.58 177.90 C 177.08 179.14 174.01 181.39 170.42 182.41 C 160.92 185.43 150.85 186.26 140.93 186.02 C 115.62 185.85 90.30 186.29 64.99 186.46 C 55.35 186.27 45.68 186.87 36.07 185.75 C 35.70 185.70 34.95 185.60 34.58 185.55 C 31.34 182.71 28.77 178.52 29.26 174.09 C 30.37 170.09 32.79 166.59 35.33 163.36 C 37.07 163.36 38.53 162.43 39.89 161.46 C 40.41 162.92 41.15 164.28 42.28 165.36 C 42.27 164.24 42.26 163.12 42.25 162.01 C 43.65 163.20 45.04 164.40 46.41 165.63 C 47.07 163.92 47.82 162.25 48.79 160.69 C 49.76 162.37 50.07 164.26 49.97 166.18 C 49.22 167.75 48.14 169.12 47.11 170.52 C 49.06 170.25 51.00 169.94 52.93 169.53 C 55.01 170.70 58.07 170.93 58.96 168.21 C 59.17 167.96 59.61 167.45 59.82 167.20 C 61.39 167.16 62.19 166.35 62.22 164.77 C 62.65 164.21 63.09 163.65 63.53 163.09 C 65.66 161.89 67.03 159.90 68.04 157.73 C 68.20 157.56 68.53 157.22 68.69 157.05 C 73.31 153.40 77.08 148.74 80.09 143.70 Z" />
</g>
<g id="#7b3c00dc">
<path fill="#7b3c00" opacity="0.86" d=" M 61.70 152.44 C 64.36 147.61 68.08 143.17 72.38 139.70 C 69.33 144.32 65.98 148.89 61.70 152.44 Z" />
</g>
<g id="#723b00c4">
<path fill="#723b00" opacity="0.77" d=" M 68.69 157.05 C 72.14 152.33 75.86 147.74 80.09 143.70 C 77.08 148.74 73.31 153.40 68.69 157.05 Z" />
</g>
<g id="#572800cf">
<path fill="#572800" opacity="0.81" d=" M 197.07 149.91 C 197.77 148.64 198.71 147.54 199.99 146.82 C 199.18 152.36 197.73 157.93 194.79 162.75 C 191.42 168.38 187.74 174.35 181.68 177.42 C 182.32 176.57 182.97 175.73 183.61 174.87 C 190.46 168.86 195.72 160.92 197.88 152.02 C 197.70 151.55 197.34 150.62 197.17 150.16 L 197.07 149.91 Z" />
</g>
<g id="#612f00de">
<path fill="#612f00" opacity="0.87" d=" M 36.26 160.23 C 39.52 157.19 41.57 152.84 45.49 150.56 C 42.75 155.31 38.58 158.99 35.33 163.36 C 32.79 166.59 30.37 170.09 29.26 174.09 C 28.77 178.52 31.34 182.71 34.58 185.55 C 29.96 184.56 27.91 179.14 28.13 174.87 C 28.61 169.04 32.82 164.60 36.26 160.23 Z" />
</g>
<g id="#fb9000fe">
<path fill="#fb9000" opacity="1.00" d=" M 197.17 150.16 C 197.34 150.62 197.70 151.55 197.88 152.02 C 195.72 160.92 190.46 168.86 183.61 174.87 C 183.38 172.55 185.41 171.19 186.58 169.49 C 185.35 167.52 182.10 168.54 180.09 168.08 C 181.00 167.19 181.87 166.27 182.74 165.36 C 181.74 164.19 180.73 163.02 179.73 161.86 C 183.41 160.67 187.78 160.20 190.33 156.93 C 190.48 156.79 190.77 156.51 190.92 156.37 C 193.19 155.41 195.72 154.29 196.47 151.69 C 196.64 151.30 196.99 150.54 197.17 150.16 Z" />
</g>
<g id="#4e2500cd">
<path fill="#4e2500" opacity="0.80" d=" M 190.92 156.37 C 192.37 154.41 194.36 152.87 196.47 151.69 C 195.72 154.29 193.19 155.41 190.92 156.37 Z" />
</g>
<g id="#743b00b6">
<path fill="#743b00" opacity="0.71" d=" M 162.85 163.69 C 171.84 162.67 181.16 161.50 189.15 156.98 L 190.33 156.93 C 187.78 160.20 183.41 160.67 179.73 161.86 C 164.36 165.92 148.26 165.18 132.51 166.18 C 114.84 166.44 97.18 167.01 79.53 167.64 C 79.39 165.32 81.36 163.85 83.18 162.84 C 82.26 164.22 81.33 165.59 80.46 167.00 C 107.88 165.19 135.42 165.38 162.85 163.69 Z" />
</g>
<g id="#864400ca">
<path fill="#864400" opacity="0.79" d=" M 63.53 163.09 C 64.80 161.12 66.30 159.31 68.04 157.73 C 67.03 159.90 65.66 161.89 63.53 163.09 Z" />
</g>
<g id="#fca100fd">
<path fill="#fca100" opacity="1.00" d=" M 132.51 166.18 C 148.26 165.18 164.36 165.92 179.73 161.86 C 180.73 163.02 181.74 164.19 182.74 165.36 C 181.87 166.27 181.00 167.19 180.09 168.08 C 169.41 173.75 156.84 174.37 144.97 174.39 C 132.32 175.36 119.63 174.13 106.98 175.09 C 100.71 174.59 94.21 175.60 88.10 173.97 C 85.15 172.89 88.42 170.37 89.70 169.34 C 86.31 169.06 82.42 169.82 79.53 167.64 C 97.18 167.01 114.84 166.44 132.51 166.18 Z" />
</g>
<g id="#833f00e2">
<path fill="#833f00" opacity="0.89" d=" M 59.82 167.20 C 60.16 165.93 60.96 165.12 62.22 164.77 C 62.19 166.35 61.39 167.16 59.82 167.20 Z" />
</g>
<g id="#834000db">
<path fill="#834000" opacity="0.86" d=" M 52.93 169.53 C 54.86 168.79 56.92 168.51 58.96 168.21 C 58.07 170.93 55.01 170.70 52.93 169.53 Z" />
</g>
<g id="#6e2c00d3">
<path fill="#6e2c00" opacity="0.83" d=" M 170.42 182.41 C 174.01 181.39 177.08 179.14 180.58 177.90 L 181.43 178.46 C 177.37 180.42 173.44 182.70 169.17 184.17 C 163.21 185.47 157.17 186.56 151.08 187.03 C 119.38 187.15 87.67 187.51 55.96 187.61 C 49.14 187.65 42.26 188.08 35.50 186.88 L 36.07 185.75 C 45.68 186.87 55.35 186.27 64.99 186.46 C 90.30 186.29 115.62 185.85 140.93 186.02 C 150.85 186.26 160.92 185.43 170.42 182.41 Z" />
</g>
</svg>
